<?xml version="1.0" encoding="iso-8859-1"?>
<!-- Generator: Adobe Illustrator 19.0.0, SVG Export Plug-In . SVG Version: 6.00 Build 0)  -->
<svg version="1.1" id="Layer_1" xmlns="http://www.w3.org/2000/svg" xmlns:xlink="http://www.w3.org/1999/xlink" x="0px" y="0px"
	 viewBox="0 0 512 512" style="enable-background:new 0 0 512 512;" xml:space="preserve">
<path style="fill:#A2D8F4;" d="M263.383,309.304V74.861c0-41.278-33.582-74.86-74.86-74.86s-74.86,33.582-74.86,74.86v235.025
	c-24.52,22.936-39.165,54.766-39.165,86.928c0,31.591,11.972,60.783,33.708,82.195C129.801,500.283,159.11,512,190.733,512
	c31.591,0,60.689-11.879,81.933-33.446c21.105-21.427,32.727-50.642,32.727-82.265C305.394,364.311,289.677,332.426,263.383,309.304
	z"/>
<path style="fill:#7CC8F0;" d="M263.381,309.303V74.86c0-41.278-33.582-74.86-74.86-74.86l2.21,512
	c31.591,0,60.689-11.879,81.933-33.446c21.105-21.427,32.727-50.642,32.727-82.265C305.392,364.311,289.675,332.425,263.381,309.303
	z"/>
<path style="fill:#FF623F;" d="M210.019,346.461V72.64c0-11.681-9.504-21.184-21.184-21.184c-11.682,0-21.184,9.504-21.184,21.184
	v275.21c-18.576,8.622-31.464,27.428-31.464,49.254c0,29.981,24.304,54.286,54.286,54.286s54.286-24.304,54.286-54.286
	C244.757,374.017,230.337,354.31,210.019,346.461z"/>
<path style="fill:#FF4F19;" d="M210.015,346.46V72.639c0-11.681-9.504-21.184-21.184-21.184l1.637,399.936
	c29.981,0,54.286-24.304,54.286-54.286C244.753,374.017,230.334,354.31,210.015,346.46z"/>
<g>
	<path style="fill:#FF623F;" d="M313.008,121.818h106.279c10.002,0,18.111-8.109,18.111-18.111s-8.109-18.111-18.111-18.111H313.008
		c-10.002,0-18.111,8.109-18.111,18.111S303.006,121.818,313.008,121.818z"/>
	<path style="fill:#FF623F;" d="M312.742,172.059h58.466c10.002,0,18.111-8.109,18.111-18.111s-8.109-18.111-18.111-18.111h-58.466
		c-10.002,0-18.111,8.109-18.111,18.111S302.738,172.059,312.742,172.059z"/>
	<path style="fill:#FF623F;" d="M419.376,186.943h-106.28c-10.002,0-18.111,8.109-18.111,18.111
		c0,10.002,8.109,18.111,18.111,18.111h106.278c10.002,0,18.111-8.109,18.111-18.111
		C437.486,195.052,429.379,186.943,419.376,186.943z"/>
	<path style="fill:#FF623F;" d="M371.296,239.598H312.83c-10.002,0-18.111,8.109-18.111,18.111c0,10.002,8.109,18.111,18.111,18.111
		h58.466c10.002,0,18.111-8.109,18.111-18.111C389.407,247.707,381.298,239.598,371.296,239.598z"/>
</g>
<g>
	<path style="fill:#FF4F19;" d="M313.024,121.802h106.278c10.002,0,18.111-8.109,18.111-18.111H294.913
		C294.913,113.693,303.021,121.802,313.024,121.802z"/>
	<path style="fill:#FF4F19;" d="M312.756,172.042h58.466c10.002,0,18.111-8.109,18.111-18.111h-94.688
		C294.645,163.933,302.754,172.042,312.756,172.042z"/>
	<path style="fill:#FF4F19;" d="M295.001,205.037c0,10.002,8.109,18.111,18.111,18.111h106.278c10.002,0,18.111-8.109,18.111-18.111
		H295.001z"/>
	<path style="fill:#FF4F19;" d="M312.844,275.805h58.466c10.002,0,18.111-8.109,18.111-18.111h-94.688
		C294.733,267.696,302.842,275.805,312.844,275.805z"/>
</g>
<g>
</g>
<g>
</g>
<g>
</g>
<g>
</g>
<g>
</g>
<g>
</g>
<g>
</g>
<g>
</g>
<g>
</g>
<g>
</g>
<g>
</g>
<g>
</g>
<g>
</g>
<g>
</g>
<g>
</g>
</svg>
